<svg width="191" height="73" viewBox="0 0 191 73" fill="none" xmlns="http://www.w3.org/2000/svg">
<path d="M59.5903 46.3298C57.5903 46.3298 55.8003 45.8898 54.2103 44.9998C52.6303 44.1098 51.3803 42.8898 50.4703 41.3298C49.5603 39.7698 49.1003 37.9998 49.1003 36.0298C49.1003 34.0598 49.5603 32.2598 50.4703 30.7298C51.3803 29.1998 52.6203 27.9898 54.1903 27.0998C55.7603 26.2098 57.5603 25.7698 59.5903 25.7698C61.6203 25.7698 63.3803 26.2098 64.9703 27.0798C66.5503 27.9498 67.7903 29.1598 68.6903 30.7098C69.5903 32.2598 70.0403 34.0298 70.0403 36.0298C70.0403 38.0298 69.5903 39.7998 68.6903 41.3498C67.7903 42.8998 66.5503 44.1098 64.9703 44.9998C63.3903 45.8898 61.5903 46.3298 59.5903 46.3298ZM59.5903 43.1398C60.8803 43.1398 62.0403 42.8498 63.0703 42.2698C64.1003 41.6898 64.9003 40.8598 65.4803 39.7798C66.0603 38.6998 66.3503 37.4598 66.3503 36.0398C66.3503 34.6198 66.0603 33.3498 65.4803 32.2998C64.9003 31.2498 64.0903 30.4298 63.0703 29.8498C62.0403 29.2698 60.8803 28.9798 59.5903 28.9798C58.3003 28.9798 57.1503 29.2698 56.1303 29.8498C55.1203 30.4298 54.3103 31.2498 53.7003 32.2998C53.0903 33.3498 52.7903 34.5998 52.7903 36.0398C52.7903 37.4798 53.0903 38.7098 53.7003 39.7798C54.3103 40.8598 55.1203 41.6898 56.1303 42.2698C57.1403 42.8498 58.3003 43.1398 59.5903 43.1398Z" fill="white"/>
<path d="M76.3103 46.0998V25.9598H79.8103V31.4298L79.4703 30.0598C80.0303 28.6698 80.9603 27.5998 82.2803 26.8698C83.6003 26.1398 85.2203 25.7698 87.1403 25.7698V29.2998C86.9903 29.2798 86.8403 29.2598 86.7003 29.2598H86.3003C84.3503 29.2598 82.8003 29.8398 81.6603 31.0098C80.5203 32.1798 79.9503 33.8598 79.9503 36.0598V46.0898H76.3003L76.3103 46.0998Z" fill="white"/>
<path d="M101.01 45.2698C99.0603 45.2698 97.3203 44.8598 95.7803 44.0398C94.2403 43.2198 93.0303 42.0698 92.1303 40.5998C91.2303 39.1298 90.7803 37.4298 90.7803 35.5098C90.7803 33.5898 91.2303 31.8598 92.1303 30.3998C93.0303 28.9398 94.2503 27.8098 95.7803 26.9998C97.3103 26.1898 99.0503 25.7798 101.01 25.7798C102.73 25.7798 104.3 26.1298 105.72 26.8198C107.14 27.5198 108.27 28.5898 109.12 30.0298C109.97 31.4698 110.39 33.2998 110.39 35.4998C110.39 37.6998 109.97 39.4898 109.12 40.9298C108.27 42.3698 107.14 43.4598 105.72 44.1798C104.3 44.8998 102.73 45.2598 101.01 45.2598V45.2698ZM101.47 53.7098C99.6203 53.7098 97.8303 53.4498 96.0903 52.9298C94.3503 52.4098 92.9403 51.6698 91.8503 50.7098L93.6003 47.8998C94.5403 48.7098 95.6903 49.3498 97.0603 49.8198C98.4303 50.2898 99.8603 50.5198 101.35 50.5198C103.73 50.5198 105.48 49.9598 106.59 48.8498C107.7 47.7398 108.26 46.0398 108.26 43.7598V39.4998L108.64 35.5098L108.45 31.4798V25.9698H111.91V43.3698C111.91 46.9198 111.02 49.5298 109.25 51.1998C107.48 52.8698 104.88 53.7098 101.46 53.7098H101.47ZM101.43 42.0798C102.77 42.0798 103.96 41.7998 105 41.2398C106.04 40.6798 106.86 39.9098 107.45 38.9198C108.05 37.9298 108.34 36.7898 108.34 35.4998C108.34 34.2098 108.04 33.0698 107.45 32.0798C106.86 31.0898 106.04 30.3298 105 29.7798C103.96 29.2398 102.77 28.9598 101.43 28.9598C100.09 28.9598 98.8903 29.2298 97.8403 29.7798C96.7903 30.3198 95.9603 31.0898 95.3703 32.0798C94.7803 33.0698 94.4803 34.2098 94.4803 35.4998C94.4803 36.7898 94.7803 37.9298 95.3703 38.9198C95.9703 39.9098 96.7903 40.6798 97.8403 41.2398C98.8903 41.7998 100.09 42.0798 101.43 42.0798Z" fill="white"/>
<path d="M125.98 46.3298C124.48 46.3298 123.17 46.0798 122.05 45.5698C120.92 45.0598 120.05 44.3598 119.45 43.4598C118.84 42.5598 118.54 41.5398 118.54 40.3998C118.54 39.2598 118.8 38.3198 119.32 37.4398C119.84 36.5498 120.69 35.8398 121.87 35.3098C123.05 34.7798 124.64 34.5098 126.64 34.5098H133.02V37.1298H126.79C124.97 37.1298 123.74 37.4298 123.1 38.0398C122.47 38.6498 122.15 39.3798 122.15 40.2398C122.15 41.2298 122.54 42.0198 123.33 42.6198C124.11 43.2198 125.2 43.5098 126.6 43.5098C128 43.5098 129.17 43.2098 130.19 42.5998C131.22 41.9898 131.96 41.1098 132.41 39.9398L133.13 42.4498C132.65 43.6398 131.8 44.5798 130.58 45.2798C129.36 45.9798 127.83 46.3198 125.98 46.3198V46.3298ZM132.59 46.0998V41.8398L132.4 41.0398V33.7798C132.4 32.2398 131.95 31.0398 131.05 30.1898C130.15 29.3398 128.8 28.9198 127 28.9198C125.81 28.9198 124.64 29.1198 123.5 29.5098C122.36 29.8998 121.4 30.4298 120.61 31.0898L119.09 28.3498C120.13 27.5098 121.38 26.8698 122.83 26.4298C124.29 25.9898 125.81 25.7598 127.41 25.7598C130.17 25.7598 132.3 26.4298 133.79 27.7698C135.28 29.1098 136.03 31.1698 136.03 33.9298V46.0898H132.57L132.59 46.0998Z" fill="white"/>
<path d="M154.78 25.7698C156.43 25.7698 157.88 26.0898 159.13 26.7198C160.38 27.3498 161.37 28.3198 162.07 29.6098C162.77 30.8998 163.13 32.5398 163.13 34.5098V46.0998H159.48V34.9298C159.48 32.9798 159.01 31.5098 158.06 30.5198C157.11 29.5298 155.77 29.0398 154.05 29.0398C152.76 29.0398 151.63 29.2898 150.67 29.7998C149.71 30.3098 148.97 31.0498 148.45 32.0398C147.93 33.0298 147.67 34.2598 147.67 35.7298V46.0998H144.02V25.9598H147.52V31.3898L146.95 29.9498C147.61 28.6298 148.62 27.6098 149.99 26.8698C151.36 26.1398 152.95 25.7698 154.78 25.7698Z" fill="white"/>
<path d="M179.75 46.3298C177.75 46.3298 175.96 45.8898 174.37 44.9998C172.79 44.1098 171.54 42.8898 170.63 41.3298C169.72 39.7698 169.26 37.9998 169.26 36.0298C169.26 34.0598 169.72 32.2598 170.63 30.7298C171.54 29.1998 172.78 27.9898 174.35 27.0998C175.92 26.2098 177.72 25.7698 179.75 25.7698C181.78 25.7698 183.54 26.2098 185.13 27.0798C186.72 27.9498 187.95 29.1598 188.85 30.7098C189.75 32.2598 190.2 34.0298 190.2 36.0298C190.2 38.0298 189.75 39.7998 188.85 41.3498C187.95 42.8998 186.71 44.1098 185.13 44.9998C183.55 45.8898 181.75 46.3298 179.75 46.3298ZM179.75 43.1398C181.04 43.1398 182.2 42.8498 183.23 42.2698C184.26 41.6898 185.06 40.8598 185.64 39.7798C186.22 38.6998 186.51 37.4598 186.51 36.0398C186.51 34.6198 186.22 33.3498 185.64 32.2998C185.06 31.2498 184.25 30.4298 183.23 29.8498C182.2 29.2698 181.05 28.9798 179.75 28.9798C178.45 28.9798 177.3 29.2698 176.29 29.8498C175.28 30.4298 174.47 31.2498 173.86 32.2998C173.25 33.3498 172.95 34.5998 172.95 36.0398C172.95 37.4798 173.25 38.7098 173.86 39.7798C174.47 40.8598 175.28 41.6898 176.29 42.2698C177.3 42.8498 178.46 43.1398 179.75 43.1398Z" fill="white"/>
<path d="M6.0803 14C6.3303 14.5 6.8403 14.82 7.4003 14.82C7.9603 14.82 8.4703 14.5 8.7203 14L14.6603 2.14C14.8903 1.68 14.8603 1.14 14.5903 0.7C14.3203 0.26 13.8403 0 13.3303 0H1.4803C0.970301 0 0.490301 0.27 0.220301 0.7C-0.0496993 1.14 -0.0696993 1.68 0.150301 2.14L6.0803 14ZM10.9403 2.96L7.4103 10.03L3.8803 2.96H10.9403ZM7.4103 43.48C9.3803 43.48 11.2603 42.7 12.6503 41.31C14.0403 39.92 14.8203 38.03 14.8203 36.07C14.8203 34.11 14.0403 32.22 12.6503 30.83C11.2603 29.44 9.3703 28.66 7.4103 28.66C5.4503 28.66 3.5603 29.44 2.1703 30.83C0.780301 32.22 0.000300889 34.11 0.000300889 36.07C0.000300889 38.03 0.780301 39.92 2.1703 41.31C3.5603 42.7 5.4403 43.48 7.4103 43.48ZM7.4103 31.62C8.5903 31.62 9.7203 32.09 10.5603 32.92C11.3903 33.75 11.8603 34.89 11.8603 36.07C11.8603 37.25 11.3903 38.38 10.5603 39.22C9.7303 40.05 8.5903 40.52 7.4103 40.52C6.2303 40.52 5.1003 40.05 4.2603 39.22C3.4303 38.39 2.9603 37.25 2.9603 36.07C2.9603 34.89 3.4303 33.76 4.2603 32.92C5.0903 32.09 6.2303 31.62 7.4103 31.62ZM1.4803 72.14H13.3403C14.1603 72.14 14.8203 71.48 14.8203 70.66V58.8C14.8203 57.98 14.1603 57.32 13.3403 57.32H1.4803C0.660301 57.32 0.000300889 57.98 0.000300889 58.8V70.66C0.000300889 71.48 0.660301 72.14 1.4803 72.14ZM2.9603 60.28H11.8603V69.18H2.9603V60.28ZM26.6803 63.25V37.55H18.2803C17.4603 37.55 16.8003 36.89 16.8003 36.07C16.8003 35.25 17.4603 34.59 18.2803 34.59H26.6803V8.89H18.2803C17.4603 8.89 16.8003 8.23 16.8003 7.41C16.8003 6.59 17.4603 5.93 18.2803 5.93H28.1603C28.9803 5.93 29.6403 6.59 29.6403 7.41V34.59H38.0403C38.8603 34.59 39.5203 35.25 39.5203 36.07C39.5203 36.89 38.8603 37.55 38.0403 37.55H29.6403V64.73C29.6403 65.55 28.9803 66.21 28.1603 66.21H18.2803C17.4603 66.21 16.8003 65.55 16.8003 64.73C16.8003 63.91 17.4603 63.25 18.2803 63.25H26.6803Z" fill="white"/>
</svg>
